<svg width="368" height="298" viewBox="0 0 368 298" fill="none" xmlns="http://www.w3.org/2000/svg">
<path d="M293.989 86.1372C284.297 54.3367 265.141 23.8612 239.133 2.73656C238.148 1.94154 236.786 1.79011 235.65 2.28226L193.779 21.2111C156.3 14.2832 118.896 12.7689 82.818 26.0569C81.5687 26.5112 80.698 27.6848 80.6223 29.0098C80.0923 39.2693 77.8965 81.8971 77.8965 81.8971C52.9861 108.246 33.4894 141.41 28.7572 177.337C28.6057 178.586 29.1357 179.797 30.1958 180.517L75.0951 211.825C84.7866 243.663 103.943 274.139 129.951 295.263C130.935 296.058 132.298 296.21 133.434 295.718L175.342 276.789C212.746 283.717 250.149 285.193 286.228 271.905C287.477 271.451 288.348 270.277 288.424 268.914L291.149 216.027C316.098 189.678 335.594 156.553 340.327 120.626C340.478 119.376 339.948 118.165 338.926 117.446L293.989 86.1372Z" fill="#6EDBFF" stroke="white" stroke-width="2" stroke-miterlimit="10" stroke-linecap="round" stroke-linejoin="round"/>
<path d="M258.819 148.073C275.476 149.663 306.557 156.439 303.529 170.219C300.462 184 299.932 189.035 297.926 197.136C295.957 205.238 289.294 208.456 275.476 194.07C261.658 179.684 258.819 148.073 258.819 148.073Z" fill="white"/>
<path d="M226.943 86.5223C224.027 79.8593 224.406 63.5048 238.489 57.3718C252.572 51.2389 267.677 56.1982 276.385 67.8206C286.758 81.6386 293.799 104.808 309.207 113.477C314.924 116.695 320.716 115.332 322.571 113.477C324.426 111.622 320.375 122.941 313.712 124.531C307.05 126.122 304.248 124.191 304.248 124.191C304.248 124.191 306.785 128.507 314.243 127.712C321.7 126.917 325.411 123.736 325.411 123.736C325.411 123.736 320.716 138.69 310.797 141.832C288.991 148.76 269.343 134.412 262.15 126.538C254.995 118.664 226.943 86.5223 226.943 86.5223Z" fill="black"/>
<path d="M290.468 179.305C290.468 179.305 295.768 181.955 302.317 194.297C308.45 205.844 308.677 217.731 308.677 217.731C308.677 217.731 314.015 216.974 323.858 217.769C333.701 218.564 338.358 227.65 338.358 227.65C338.358 227.65 340.856 214.097 339.456 201.831C337.411 184.265 333.436 170.257 316.135 148.11C299.743 127.137 274.113 118.581 256.017 118.203C237.921 117.824 218.765 129.484 218.765 129.484V182.94C218.765 182.94 273.545 214.589 284.713 216.974C295.881 219.359 299.062 218.829 299.062 218.829C299.062 218.829 298.077 212.317 298.721 200.695C299.099 193.805 299.024 189.148 299.024 189.148" fill="white"/>
<path d="M290.468 179.305C290.468 179.305 295.768 181.955 302.317 194.297C308.45 205.844 308.677 217.731 308.677 217.731C308.677 217.731 314.015 216.974 323.858 217.769C333.701 218.564 338.358 227.65 338.358 227.65C338.358 227.65 340.856 214.097 339.456 201.831C337.411 184.265 333.436 170.257 316.135 148.11C299.743 127.137 274.113 118.581 256.017 118.203C237.921 117.824 218.765 129.484 218.765 129.484V182.94C218.765 182.94 273.545 214.589 284.713 216.974C295.881 219.359 299.062 218.829 299.062 218.829C299.062 218.829 298.077 212.317 298.721 200.695C299.099 193.805 299.024 189.148 299.024 189.148" stroke="black" stroke-width="1.2" stroke-miterlimit="10" stroke-linecap="round" stroke-linejoin="round"/>
<path d="M212.822 281.18C212.822 281.18 209.755 213.756 214.298 184C218.803 154.206 222.589 144.893 226.829 135.845C231.069 126.797 238.527 120.891 238.527 120.891L246.326 118.998C246.326 118.998 236.975 126.153 230.312 148.073C224.444 167.456 226.034 178.662 226.034 178.662C226.034 178.662 230.69 183.167 247.84 182.826C265.785 182.485 272.675 180.1 272.675 180.1C272.675 180.1 274.719 140.085 273.924 131.074C273.129 122.026 270.895 119.869 270.895 119.869L280.549 123.086C280.549 123.086 282.518 138.002 283.199 158.976C283.994 183.886 287.477 199.143 291.376 207.509C294.102 213.377 299.175 218.829 299.175 218.829C299.705 222.804 303.945 258.201 304.21 259.526C304.475 260.851 304.21 266.719 304.21 266.719" fill="#6EDBFF"/>
<path d="M212.822 281.18C212.822 281.18 209.755 213.756 214.298 184C218.803 154.206 222.589 144.893 226.829 135.845C231.069 126.797 238.527 120.891 238.527 120.891L246.326 118.998C246.326 118.998 236.975 126.153 230.312 148.073C224.444 167.456 226.034 178.662 226.034 178.662C226.034 178.662 230.69 183.167 247.84 182.826C265.785 182.485 272.675 180.1 272.675 180.1C272.675 180.1 274.719 140.085 273.924 131.074C273.129 122.026 270.895 119.869 270.895 119.869L280.549 123.086C280.549 123.086 282.518 138.002 283.199 158.976C283.994 183.886 287.477 199.143 291.376 207.509C294.102 213.377 299.175 218.829 299.175 218.829C299.705 222.804 303.945 258.201 304.21 259.526C304.475 260.851 304.21 266.719 304.21 266.719" stroke="black" stroke-width="1.2" stroke-miterlimit="10" stroke-linecap="round" stroke-linejoin="round"/>
<path d="M238.489 115.363C238.489 115.363 241.669 125.471 241.934 127.591C242.199 129.711 249.922 134.519 258.175 130.771C266.428 127.061 267.753 121.988 268.018 120.398C268.283 118.808 263.778 114 263.248 106.315C262.718 98.6302 264.27 97.5323 263.437 97.7973C262.642 98.0623 238.489 115.363 238.489 115.363Z" fill="#6EDBFF" stroke="black" stroke-width="1.2" stroke-miterlimit="10" stroke-linecap="round" stroke-linejoin="round"/>
<path d="M228.154 200.278C228.154 200.278 227.094 226.135 229.441 229.542C235.309 237.985 264.8 237.985 270.479 228.747C272.107 226.097 271.198 200.278 271.198 200.278C271.198 200.278 248.9 208.001 228.154 200.278Z" fill="#6EDBFF" stroke="black" stroke-width="1.2" stroke-miterlimit="10" stroke-linecap="round" stroke-linejoin="round"/>
<path d="M239.36 118.127C239.36 118.127 241.328 123.541 241.404 124.563C241.518 125.585 246.136 124.79 248.824 121.345C251.512 117.9 251.777 112.94 251.777 112.94C251.777 112.94 246.023 117.635 243.373 118.127C240.723 118.619 239.36 118.127 239.36 118.127Z" fill="black" stroke="black" stroke-width="1.2" stroke-miterlimit="10" stroke-linecap="round" stroke-linejoin="round"/>
<path d="M251.777 112.941C248.029 117.105 241.783 120.058 235.536 117.711C229.403 115.439 224.633 101.621 227.245 86.6295C229.252 74.9314 236.596 69.0635 236.596 69.0635C236.596 69.0635 243.259 78.7551 257.342 80.3829C263.437 81.0644 264.005 84.7366 264.005 84.7366L263.437 91.3238C263.437 91.3238 264.725 87.0081 268.624 89.2795C271.653 91.0588 270.858 96.7754 266.655 99.1225C263.324 100.978 262.339 100.902 262.339 100.902" fill="#6EDBFF"/>
<mask id="mask0" mask-type="alpha" maskUnits="userSpaceOnUse" x="226" y="69" width="45" height="50">
<path d="M251.777 112.941C248.029 117.105 241.783 120.058 235.536 117.711C229.403 115.439 224.633 101.621 227.245 86.6295C229.252 74.9314 236.596 69.0635 236.596 69.0635C236.596 69.0635 243.259 78.7551 257.342 80.3829C263.437 81.0644 264.005 84.7366 264.005 84.7366L263.437 91.3238C263.437 91.3238 264.725 87.0081 268.624 89.2795C271.653 91.0588 270.858 96.7754 266.655 99.1225C263.324 100.978 262.339 100.902 262.339 100.902" fill="#45DFA7"/>
</mask>
<g mask="url(#mask0)">
<path d="M241.404 68.7983C234.06 76.6349 228.381 87.6136 229.441 97.7595C230.501 107.905 233.605 117.181 235.574 117.748C237.543 118.316 228.533 114.947 226.602 110.253C224.671 105.52 223.762 83.79 226.602 77.6192C229.441 71.4484 236.634 65.3533 236.634 65.3533L241.404 68.7983Z" fill="white"/>
</g>
<path d="M251.777 112.941C248.029 117.105 241.783 120.058 235.536 117.711C229.403 115.439 224.633 101.621 227.245 86.6295C229.252 74.9314 236.596 69.0635 236.596 69.0635C236.596 69.0635 243.259 78.7551 257.342 80.3829C263.437 81.0644 264.005 84.7366 264.005 84.7366L263.437 91.3238C263.437 91.3238 264.725 87.0081 268.624 89.2795C271.653 91.0588 270.858 96.7754 266.655 99.1225C263.324 100.978 262.339 100.902 262.339 100.902" stroke="black" stroke-width="1.2" stroke-miterlimit="10" stroke-linecap="round" stroke-linejoin="round"/>
<path d="M236.634 89.5445C236.634 89.5445 231.031 88.9009 231.031 91.6645C231.031 94.5796 236.634 95.1096 236.634 95.1096" stroke="black" stroke-width="1.2" stroke-miterlimit="10" stroke-linecap="round" stroke-linejoin="round"/>
<path d="M239.436 102.567C239.436 102.567 244.774 107.3 246.856 98.2896" stroke="black" stroke-width="1.2" stroke-miterlimit="10" stroke-linecap="round" stroke-linejoin="round"/>
<path d="M263.437 91.6644L257.38 81.8214L264.043 78.7549L270.214 90.9829C270.214 90.9829 268.7 88.1057 266.05 88.7872C263.362 89.4686 263.437 91.6644 263.437 91.6644Z" fill="#6EDBFF"/>
<mask id="mask1" mask-type="alpha" maskUnits="userSpaceOnUse" x="257" y="78" width="14" height="14">
<path d="M263.437 91.6644L257.38 81.8214L264.043 78.7549L270.214 90.9829C270.214 90.9829 268.7 88.1057 266.05 88.7872C263.362 89.4686 263.437 91.6644 263.437 91.6644Z" fill="#45DFA7"/>
</mask>
<g mask="url(#mask1)">
<path d="M260.257 82.3513L265.368 91.2479L261.999 92.3079L256.32 82.3513H260.257Z" fill="white"/>
</g>
<path d="M263.437 91.6644L257.38 81.8214L264.043 78.7549L270.214 90.9829C270.214 90.9829 268.7 88.1057 266.05 88.7872C263.362 89.4686 263.437 91.6644 263.437 91.6644Z" stroke="black" stroke-width="1.2" stroke-miterlimit="10" stroke-linecap="round" stroke-linejoin="round"/>
<path d="M257.38 72.8113V81.8593C257.38 81.8593 259.273 83.1843 261.582 81.8593C263.892 80.5343 264.043 78.7928 264.043 78.7928L257.38 72.8113Z" fill="#6EDBFF"/>
<path d="M257.38 78.1002L257.38 81.8213L260.257 82.3514L258.743 77.6191L257.38 78.1002Z" fill="white"/>
<path d="M257.38 72.8113V81.8593C257.38 81.8593 259.273 83.1843 261.582 81.8593C263.892 80.5343 264.043 78.7928 264.043 78.7928L257.38 72.8113Z" stroke="black" stroke-width="1.2" stroke-miterlimit="10" stroke-linecap="round" stroke-linejoin="round"/>
<path d="M257.38 77.6191C257.38 77.6191 258.705 78.187 259.652 76.9377C260.598 75.6884 260.182 75.3477 260.182 75.3477" fill="#6EDBFF"/>
<path d="M257.38 77.6191C257.38 77.6191 258.705 78.187 259.652 76.9377C260.598 75.6884 260.182 75.3477 260.182 75.3477" stroke="black" stroke-width="1.2" stroke-miterlimit="10" stroke-linecap="round" stroke-linejoin="round"/>
<path d="M208.544 80.4208L45.9824 77.2786C37.048 77.2786 29.4007 78.3007 29.4007 88.3709L29.2493 104.839L33.1487 240.181L211.156 253.166C215.85 253.128 219.03 248.736 219.03 244.383L219.371 107.073V91.6645C219.333 85.2287 215.585 80.4208 208.544 80.4208Z" fill="black"/>
<path d="M208.544 80.4208L45.9824 77.2786C37.048 77.2786 29.4007 78.3007 29.4007 88.3709L29.2493 104.839L33.1487 240.181L211.156 253.166C215.85 253.128 219.03 248.736 219.03 244.383L219.371 107.073V91.6645C219.333 85.2287 215.585 80.4208 208.544 80.4208Z" stroke="black" stroke-width="1.2" stroke-miterlimit="10" stroke-linecap="round" stroke-linejoin="round"/>
<path d="M214.222 110.253L214.752 246.843C214.752 248.774 212.557 253.317 210.626 253.204L30.1957 243.398C28.9843 243.323 28.0379 242.338 28.0379 241.127L29.1357 106.77L214.222 110.253Z" fill="#6EDBFF"/>
<path d="M214.222 132.134C214.222 132.134 203.584 139.668 187.987 156.931C171.822 174.838 151.492 176.655 145.624 160.376C139.605 143.719 136.273 129.711 133.32 129.711C129.118 129.711 132.715 153.524 133.32 155.493C133.737 156.855 122.909 162.723 122.909 162.723C122.909 162.723 124.992 173.816 132.222 182.22C140.324 191.609 162.471 207.547 185.337 200.846C203.736 195.47 214.184 179.646 214.184 179.646" stroke="white" stroke-width="1.2" stroke-miterlimit="10" stroke-linecap="round" stroke-linejoin="round"/>
<path d="M182.043 163.746C185.337 164.389 194.12 171.961 196.77 184.34C198.663 193.199 196.959 195.508 196.959 195.508" stroke="white" stroke-width="1.2" stroke-miterlimit="10" stroke-linecap="round" stroke-linejoin="round"/>
<path d="M123.402 157.65C120.676 155.417 119.237 161.171 122.19 166.698C123.894 169.916 128.815 172.604 129.724 170.674C130.822 168.288 125.522 159.392 123.402 157.65Z" fill="#6EDBFF" stroke="white" stroke-width="1.2" stroke-miterlimit="10" stroke-linecap="round" stroke-linejoin="round"/>
<path d="M127.263 150.685C123.137 150.685 122.228 155.606 123.402 160.528C124.613 165.752 128.134 168.516 130.065 169.5C131.957 170.446 132.866 169.083 131.73 163.783C130.595 158.445 130.443 150.685 127.263 150.685Z" fill="#6EDBFF" stroke="white" stroke-width="1.2" stroke-miterlimit="10" stroke-linecap="round" stroke-linejoin="round"/>
<path d="M132.904 152.578C132.374 148.375 129.307 147.24 127.452 148.981C125.787 150.533 125.976 156.061 127.414 160.225C128.777 164.124 132.601 168.213 134.721 167.304C137.522 166.093 134.456 165.184 132.904 152.578Z" fill="#6EDBFF" stroke="white" stroke-width="1.2" stroke-miterlimit="10" stroke-linecap="round" stroke-linejoin="round"/>
<path d="M145.056 161.398C136.955 160.225 128.399 158.37 127.944 162.458C127.566 165.79 144.072 171.923 144.072 171.923" fill="#6EDBFF"/>
<path d="M145.056 161.398C136.955 160.225 128.399 158.37 127.944 162.458C127.566 165.79 144.072 171.923 144.072 171.923" stroke="white" stroke-width="1.2" stroke-miterlimit="10" stroke-linecap="round" stroke-linejoin="round"/>
<path d="M214.222 92.1188V110.253L29.1357 106.77L29.2872 88.9009C29.325 84.1309 33.2622 80.3072 38.0323 80.3829L205.818 83.5251C210.474 83.6387 214.222 87.4245 214.222 92.1188Z" fill="black"/>
<path d="M214.222 92.1188V110.253L29.1357 106.77L29.2872 88.9009C29.325 84.1309 33.2622 80.3072 38.0323 80.3829L205.818 83.5251C210.474 83.6387 214.222 87.4245 214.222 92.1188Z" stroke="black" stroke-width="1.2" stroke-miterlimit="10" stroke-linecap="round" stroke-linejoin="round"/>
<path d="M45.9067 125.206L45.6039 177.071L109.924 178.624V126.531L45.9067 125.206Z" fill="white"/>
<path d="M45.566 183.091L45.4146 193.502L67.3342 194.107V183.697L45.566 183.091Z" fill="white"/>
<path d="M142.141 184.794L141.99 195.205L163.72 196.076L163.909 185.4L142.141 184.794Z" fill="white"/>
<path d="M58.4755 143.34C61.4863 143.34 63.927 140.832 63.927 137.737C63.927 134.643 61.4863 132.134 58.4755 132.134C55.4647 132.134 53.024 134.643 53.024 137.737C53.024 140.832 55.4647 143.34 58.4755 143.34Z" fill="#6EDBFF"/>
<path d="M41.9695 165.638L57.5291 155.947L72.8236 165.638L90.6924 148.981L109.924 163.215" stroke="#6EDBFF" stroke-width="1.2" stroke-miterlimit="10" stroke-linecap="round" stroke-linejoin="round"/>
<path d="M141.99 127.062L142.595 178.927L205.099 180.517L204.493 127.819L141.99 127.062Z" fill="white"/>
<path d="M155.391 145.65C158.402 145.65 160.843 143.141 160.843 140.047C160.843 136.952 158.402 134.444 155.391 134.444C152.381 134.444 149.94 136.952 149.94 140.047C149.94 143.141 152.381 145.65 155.391 145.65Z" fill="#6EDBFF"/>
<path d="M142.028 166.736L156.338 157.802L171.632 167.494L189.539 150.874L207.181 163.935" stroke="#6EDBFF" stroke-width="1.2" stroke-miterlimit="10" stroke-linecap="round" stroke-linejoin="round"/>
<path d="M168.642 102.378C171.401 102.378 173.639 100.005 173.639 97.0782C173.639 94.151 171.401 91.7781 168.642 91.7781C165.882 91.7781 163.644 94.151 163.644 97.0782C163.644 100.005 165.882 102.378 168.642 102.378Z" fill="#6EDBFF" stroke="black" stroke-width="1.2" stroke-miterlimit="10" stroke-linecap="round" stroke-linejoin="round"/>
<path d="M183.747 102.378C186.507 102.378 188.744 100.005 188.744 97.0782C188.744 94.151 186.507 91.7781 183.747 91.7781C180.987 91.7781 178.75 94.151 178.75 97.0782C178.75 100.005 180.987 102.378 183.747 102.378Z" fill="#6EDBFF" stroke="black" stroke-width="1.2" stroke-miterlimit="10" stroke-linecap="round" stroke-linejoin="round"/>
<path d="M198.587 102.984C201.347 102.984 203.584 100.611 203.584 97.6839C203.584 94.7567 201.347 92.3838 198.587 92.3838C195.827 92.3838 193.59 94.7567 193.59 97.6839C193.59 100.611 195.827 102.984 198.587 102.984Z" fill="white" stroke="black" stroke-width="1.2" stroke-miterlimit="10" stroke-linecap="round" stroke-linejoin="round"/>
<path d="M45.2253 211.56L44.4681 243.89L110.076 247.335L110.113 213.793L45.2253 211.56Z" fill="white"/>
<path d="M56.6962 229.239C59.707 229.239 62.1477 226.731 62.1477 223.636C62.1477 220.542 59.707 218.033 56.6962 218.033C53.6854 218.033 51.2447 220.542 51.2447 223.636C51.2447 226.731 53.6854 229.239 56.6962 229.239Z" fill="#6EDBFF"/>
<path d="M108.334 249.153L92.8125 231.889L79.5 243.244" stroke="#6EDBFF" stroke-width="1.2" stroke-miterlimit="10" stroke-linecap="round" stroke-linejoin="round"/>
<path d="M142.595 214.816V249.266L205.061 252.636L204.796 216.898L142.595 214.816Z" fill="white"/>
<path d="M154.596 231.587C157.607 231.587 160.048 229.078 160.048 225.984C160.048 222.889 157.607 220.381 154.596 220.381C151.586 220.381 149.145 222.889 149.145 225.984C149.145 229.078 151.586 231.587 154.596 231.587Z" fill="#6EDBFF"/>
<path d="M140.778 254.604L156.338 244.913L169.702 253.393L189.501 237.985L207.143 251.046" stroke="#6EDBFF" stroke-width="1.2" stroke-miterlimit="10" stroke-linecap="round" stroke-linejoin="round"/>
<path d="M36.2908 106.921L33.7544 237.152L211.799 246.73L211.837 252.939L28.0379 243.285L29.1357 106.77L36.2908 106.921Z" fill="#6EDBFF"/>
<path d="M36.2908 110.253L34.4358 233.972C34.398 235.789 35.8366 237.303 37.6537 237.417L211.799 246.768" stroke="white" stroke-width="1.2" stroke-miterlimit="10" stroke-linecap="round" stroke-linejoin="round"/>
<path d="M215.282 243.777C216.229 250.478 212.216 253.09 209.679 252.939L31.2179 243.474C29.4007 243.361 28 241.884 28 240.067L29.0979 106.808L214.184 110.253" stroke="black" stroke-width="1.2" stroke-miterlimit="10" stroke-linecap="round" stroke-linejoin="round"/>
<path d="M41.6666 80.4207L205.818 83.5628C210.474 83.6386 214.222 87.4622 214.222 92.1187V246.768" stroke="#6EDBFF" stroke-width="1.2" stroke-miterlimit="10" stroke-linecap="round" stroke-linejoin="round"/>
<path d="M175.38 276.789C212.784 283.717 250.187 285.193 286.266 271.905" stroke="white" stroke-width="1.2" stroke-miterlimit="10" stroke-linecap="round" stroke-linejoin="round"/>
<path d="M308.677 217.693C308.677 217.693 309.283 227.99 304.172 237.19C299.099 246.427 294.594 250.364 279.489 259.412C272.334 263.69 269.267 269.52 269.949 272.7C270.63 275.88 276.574 268.725 278.429 268.044C280.284 267.324 287.666 272.208 286.72 272.889C283.881 274.858 277.369 279.136 278.921 281.597C279.981 283.3 292.664 276.486 300.273 272.587C331.846 256.346 339.001 229.504 339.001 222.312C339.001 218.374 333.588 215.194 325.448 214.21C317.347 213.188 310.457 215.838 308.677 217.693Z" fill="#6EDBFF"/>
<mask id="mask2" mask-type="alpha" maskUnits="userSpaceOnUse" x="269" y="213" width="71" height="69">
<path d="M308.677 217.693C308.677 217.693 309.283 227.99 304.172 237.19C299.099 246.427 294.594 250.364 279.489 259.412C272.334 263.69 269.267 269.52 269.949 272.7C270.63 275.88 276.574 268.725 278.429 268.044C280.284 267.324 287.666 272.208 286.72 272.889C283.881 274.858 277.369 279.136 278.921 281.597C279.981 283.3 292.664 276.486 300.273 272.587C331.846 256.346 339.001 229.504 339.001 222.312C339.001 218.374 333.588 215.194 325.448 214.21C317.347 213.188 310.457 215.838 308.677 217.693Z" fill="#45DFA7"/>
</mask>
<g mask="url(#mask2)">
<path d="M271.425 273.382C279.338 261.002 286.682 258.844 290.884 254.756C300.727 245.178 304.93 235.751 304.93 235.751C304.93 235.751 273.167 256.573 270.479 262.555C265.368 273.874 271.425 273.382 271.425 273.382Z" fill="white"/>
</g>
<path d="M308.677 217.693C308.677 217.693 309.283 227.99 304.172 237.19C299.099 246.427 294.594 250.364 279.489 259.412C272.334 263.69 269.267 269.52 269.949 272.7C270.63 275.88 276.574 268.725 278.429 268.044C280.284 267.324 287.666 272.208 286.72 272.889C283.881 274.858 277.369 279.136 278.921 281.597C279.981 283.3 292.664 276.486 300.273 272.587C331.846 256.346 339.001 229.504 339.001 222.312C339.001 218.374 333.588 215.194 325.448 214.21C317.347 213.188 310.457 215.838 308.677 217.693Z" stroke="black" stroke-width="1.2" stroke-miterlimit="10" stroke-linecap="round" stroke-linejoin="round"/>
<path d="M281.836 262.554C274.795 266.832 270.403 276.145 272.788 277.659C274.984 279.06 277.71 271.754 283.426 267.589" fill="#6EDBFF"/>
<mask id="mask3" mask-type="alpha" maskUnits="userSpaceOnUse" x="272" y="262" width="12" height="16">
<path d="M281.836 262.554C274.795 266.832 270.403 276.145 272.788 277.659C274.984 279.06 277.71 271.754 283.426 267.589" fill="#45DFA7"/>
</mask>
<g mask="url(#mask3)">
<path d="M279.376 264.371C271.88 274.82 275.287 279.287 275.287 279.287C275.287 279.287 270.479 281.786 270.479 279.287C270.479 276.789 273.205 272.132 274.34 270.239C275.476 268.346 279.376 264.371 279.376 264.371Z" fill="white"/>
</g>
<path d="M281.836 262.554C274.795 266.832 270.403 276.145 272.788 277.659C274.984 279.06 277.71 271.754 283.426 267.589" stroke="black" stroke-width="1.2" stroke-miterlimit="10" stroke-linecap="round" stroke-linejoin="round"/>
<path d="M284.676 266.87C280.436 268.99 273.886 277.735 275.287 279.287C277.331 281.559 283.123 273.76 288.575 272.057" fill="#6EDBFF"/>
<path d="M284.676 266.87C280.436 268.99 273.886 277.735 275.287 279.287C277.331 281.559 283.123 273.76 288.575 272.057" stroke="black" stroke-width="1.2" stroke-miterlimit="10" stroke-linecap="round" stroke-linejoin="round"/>
</svg>
